Coordinates
version=1
nRows=26
nColumns=18
inDegrees=yes

Units are S.I. units (second, meters, Newtons, ...)
If the header above contains a line with 'inDegrees', this indicates whether rotational values are in degrees (yes) or radians (no).

endheader
time	ground_thorax_rot_x	ground_thorax_rot_y	ground_thorax_rot_z	ground_thorax_tx	ground_thorax_ty	ground_thorax_tz	clav_prot	clav_elev	scapula_abduction	scapula_elevation	scapula_upward_rot	scapula_winging	plane_elv	shoulder_elv	axial_rot	elbow_flexion	pro_sup
      3.93000000	     -3.71777308	    -11.23092822	     -7.92883953	     -0.00668394	      0.00563195	     -0.00179031	    -39.19671144	      9.27403480	     -2.52788740	     -2.29902725	     68.83198775	    -10.67658138	     34.91925935	     99.55436819	    -10.12244074	      0.00000000	     34.32000000
      3.94000000	     -3.63972686	    -11.25875308	     -7.87740823	     -0.00652305	      0.00562992	     -0.00175443	    -39.20818458	      9.23869832	     -2.57074063	     -2.32545470	     68.79078212	    -10.67596752	     34.84670776	     99.53128716	    -10.12074241	      0.00000000	     34.32000000
      3.95000000	     -3.69081549	    -11.01870034	     -7.91651795	     -0.00649841	      0.00551048	     -0.00200433	    -39.31249893	      9.18314981	     -2.72914038	     -2.37142859	     68.79333258	    -10.71468492	     34.40591674	     99.45217299	    -10.10104330	      0.00000000	     34.32000000
      3.96000000	     -3.63476949	    -11.08882829	     -7.81643932	     -0.00649214	      0.00583705	     -0.00181853	    -39.35338725	      9.14491978	     -2.80896204	     -2.40163272	     68.76670872	    -10.72728652	     34.27893309	     99.44350169	    -10.09562167	      0.00000000	     34.32000000
      3.97000000	     -3.68580761	    -10.95421974	     -7.87712155	     -0.00660372	      0.00567460	     -0.00191905	    -39.50297441	      9.24622298	     -3.07873121	     -2.34439629	     68.78276517	    -10.82789786	     33.69316317	     99.28500620	    -10.14572862	      0.00000000	     34.32000000
      3.98000000	     -3.59376093	    -11.04897214	     -7.78007376	     -0.00672528	      0.00596678	     -0.00178672	    -39.53737884	      9.20529398	     -3.17204332	     -2.37703232	     68.72501831	    -10.83846661	     33.56347612	     99.25807539	    -10.14465432	      0.00000000	     34.32000000
      3.99000000	     -3.64052450	    -11.01575515	     -7.84163854	     -0.00669333	      0.00573591	     -0.00181523	    -39.63970802	      9.23623829	     -3.40940765	     -2.36676554	     68.65725549	    -10.90248239	     33.26716158	     99.17907379	    -10.23294724	      0.00000000	     34.32000000
      4.00000000	     -3.60697498	    -11.04683018	     -7.78760394	     -0.00657419	      0.00581162	     -0.00178731	    -39.66055384	      9.21127475	     -3.44817196	     -2.38584338	     68.64381695	    -10.90766922	     33.20970154	     99.17558192	    -10.23281311	      0.00000000	     34.32000000
      4.01000000	     -3.66667106	    -10.81459024	     -7.84150007	     -0.00652543	      0.00569561	     -0.00203271	    -39.77490307	      9.22637419	     -3.61812058	     -2.38357517	     68.67729808	    -10.96872145	     32.84035187	     99.08530274	    -10.28150350	      0.00000000	     34.32000000
      4.02000000	     -3.61956105	    -10.85484663	     -7.78530368	     -0.00652474	      0.00596073	     -0.00188674	    -39.79979993	      9.20754957	     -3.67740389	     -2.39934647	     68.64923283	    -10.97839880	     32.74466895	     99.06455417	    -10.28273774	      0.00000000	     34.32000000
      4.03000000	     -3.65461967	    -10.70112726	     -7.80172805	     -0.00670048	      0.00579622	     -0.00199658	    -39.88098204	      9.34069531	     -3.83594957	     -2.31489903	     68.67103972	    -11.05294534	     32.26052879	     98.90090856	    -10.35068370	      0.00000000	     34.32000000
      4.04000000	     -3.59537298	    -10.76372382	     -7.72778691	     -0.00671571	      0.00604029	     -0.00186292	    -39.90895611	      9.31265402	     -3.90030597	     -2.33727164	     68.63964648	    -11.06222507	     32.16536903	     98.87931465	    -10.35206116	      0.00000000	     34.32000000
      4.05000000	     -3.65625204	    -10.65874540	     -7.78273587	     -0.00663284	      0.00579717	     -0.00204494	    -40.07092598	      9.38068872	     -4.15131905	     -2.30247937	     68.69088846	    -11.16119107	     31.79994459	     98.59183923	    -10.48324336	      0.00000000	     34.32000000
      4.06000000	     -3.56876632	    -10.71125828	     -7.71658000	     -0.00653027	      0.00593882	     -0.00204788	    -40.09141709	      9.34162381	     -4.21404190	     -2.33222776	     68.64178408	    -11.16511504	     31.71466891	     98.55823701	    -10.48414206	      0.00000000	     34.32000000
      4.07000000	     -3.49486666	    -10.76623426	     -7.64774862	     -0.00644209	      0.00608748	     -0.00196753	    -40.12163507	      9.30679980	     -4.29483250	     -2.36000743	     68.59214055	    -11.17493767	     31.59877869	     98.52000458	    -10.48389974	      0.00000000	     34.32000000
      4.08000000	     -3.64069591	    -10.40455207	     -7.76664798	     -0.00644785	      0.00580621	     -0.00225044	    -40.41161639	      9.29786445	     -4.71814407	     -2.38660611	     68.66612101	    -11.32268681	     31.04506043	     98.17479479	    -10.60004529	      0.00000000	     34.32000000
      4.09000000	     -3.57778776	    -10.46911160	     -7.67111401	     -0.00642440	      0.00613033	     -0.00204731	    -40.45300905	      9.26191735	     -4.80054728	     -2.41529324	     68.63671060	    -11.33723351	     30.92731575	     98.15533947	    -10.59992313	      0.00000000	     34.32000000
      4.10000000	     -3.63063571	    -10.26129848	     -7.73018843	     -0.00641055	      0.00589944	     -0.00217902	    -40.61969470	      9.35502600	     -5.08182984	     -2.36451359	     68.66796775	    -11.44907051	     30.39417226	     97.93127637	    -10.65223418	      0.00000000	     34.32000000
      4.11000000	     -3.51552086	    -10.30157230	     -7.64160423	     -0.00641863	      0.00606699	     -0.00197549	    -40.64721557	      9.30420213	     -5.15645675	     -2.40302346	     68.61380899	    -11.45384137	     30.27592340	     97.88186718	    -10.65529176	      0.00000000	     34.32000000
      4.12000000	     -3.49943637	     -9.73768819	     -7.80151619	     -0.00647810	      0.00591844	     -0.00212990	    -41.26168677	      9.14561709	     -5.92813540	     -2.54991512	     68.86533100	    -11.73538172	     30.03888382	     97.30971212	    -11.19449792	      0.00000000	     34.32000000
      4.13000000	     -3.41093543	     -9.80867357	     -7.72492164	     -0.00647312	      0.00616094	     -0.00203833	    -41.28469151	      9.11509657	     -6.00827525	     -2.57469963	     68.80196513	    -11.74351242	     29.92215060	     97.27354029	    -11.19311463	      0.00000000	     34.32000000
      4.14000000	     -3.46621463	     -9.58158006	     -7.78910750	     -0.00643603	      0.00592736	     -0.00219183	    -41.58925971	      9.33232659	     -6.61817648	     -2.45387980	     68.75246241	    -11.97419558	     29.63763314	     97.08152743	    -11.60288853	      0.00000000	     34.32000000
      4.15000000	     -3.48778779	     -9.53023386	     -7.76059494	     -0.00640057	      0.00595373	     -0.00229392	    -41.67985032	      9.37513713	     -6.79200699	     -2.43265307	     68.73859920	    -12.03756706	     29.27456655	     96.99298962	    -11.65007930	      0.00000000	     34.32000000
      4.16000000	     -3.38384473	     -9.60315064	     -7.63108350	     -0.00640690	      0.00621762	     -0.00199460	    -41.72556283	      9.32141867	     -6.89301172	     -2.47438629	     68.68657853	    -12.05213088	     29.10395312	     96.96091496	    -11.64706630	      0.00000000	     34.32000000
      4.17000000	     -3.38668668	     -9.33205377	     -7.64222783	     -0.00655006	      0.00603643	     -0.00208562	    -41.84097936	      9.39366809	     -7.11255462	     -2.43506786	     68.67768895	    -12.13742040	     28.37689450	     96.79026761	    -11.67158387	      0.00000000	     34.32000000
      4.18000000	     -3.34393804	     -9.35110886	     -7.63824268	     -0.00658423	      0.00610541	     -0.00192537	    -41.92298013	      9.45058443	     -7.32914195	     -2.40598544	     68.59802718	    -12.20358396	     27.98650297	     96.65287922	    -11.70521209	      0.00000000	     34.32000000
